<svg width="240" height="240" viewBox="0 0 240 240" fill="none" xmlns="http://www.w3.org/2000/svg">
<g clip-path="url(#clip0_2277_3)">
<g filter="url(#filter0_d_2277_3)">
<rect x="1" y="95.6949" width="108.8" height="108.8" rx="16" transform="rotate(-26 1 95.6949)" fill="white"/>
</g>
<path d="M110.922 124.303C113.51 129.609 110.231 136.533 103.599 139.768C96.9659 143.002 89.4914 141.324 86.9033 136.017C84.3155 130.712 87.5942 123.788 94.2269 120.553C100.859 117.318 108.334 118.997 110.922 124.303Z" fill="url(#paint0_linear_2277_3)"/>
<path fill-rule="evenodd" clip-rule="evenodd" d="M85.0906 77.4352C86.4173 76.7881 88.017 77.339 88.664 78.6655L110.922 124.301C108.285 125.587 105.076 124.507 103.789 121.87L83.86 81.0086C83.2131 79.6821 83.7638 78.0822 85.0906 77.4352Z" fill="url(#paint1_linear_2277_3)"/>
<path d="M79.9652 146.625C82.5533 151.931 79.1269 158.927 72.4943 162.161C65.8618 165.396 58.3872 163.718 55.7992 158.411C53.2113 153.106 56.4901 146.182 63.1226 142.947C69.7552 139.712 77.3774 141.319 79.9652 146.625Z" fill="url(#paint2_linear_2277_3)"/>
<path fill-rule="evenodd" clip-rule="evenodd" d="M56.5362 98.5888L79.9655 146.626L75.1618 148.969L51.7324 100.932L56.5362 98.5888Z" fill="url(#paint3_linear_2277_3)"/>
<path d="M51.3006 100.046C50.1837 97.7565 51.8201 94.5179 55.2102 92.3085L76.9686 78.1284C81.456 75.2038 87.023 75.303 88.5015 78.3344L90.5562 82.547L92.6724 86.8859L56.4086 110.519L51.3006 100.046Z" fill="url(#paint4_linear_2277_3)"/>
<g filter="url(#filter1_d_2277_3)">
<rect x="140.695" y="47" width="108.8" height="108.8" rx="16" transform="rotate(26 140.695 47)" fill="white"/>
</g>
<path d="M185.827 151.232C183.238 156.539 175.764 158.217 169.131 154.982C162.499 151.747 159.22 144.824 161.808 139.518C164.396 134.212 171.87 132.533 178.503 135.768C185.135 139.003 188.414 145.927 185.827 151.232Z" fill="url(#paint5_linear_2277_3)"/>
<path fill-rule="evenodd" clip-rule="evenodd" d="M206.855 102.022C208.182 102.669 208.733 104.269 208.086 105.596L185.828 151.231C183.191 149.945 182.066 146.751 183.352 144.114L203.282 103.253C203.929 101.926 205.529 101.375 206.855 102.022Z" fill="url(#paint6_linear_2277_3)"/>
<path d="M149.178 140.581C146.589 145.887 138.968 147.494 132.335 144.259C125.702 141.024 122.423 134.101 125.011 128.794C127.599 123.489 135.074 121.809 141.707 125.044C148.339 128.279 151.765 135.275 149.178 140.581Z" fill="url(#paint7_linear_2277_3)"/>
<path fill-rule="evenodd" clip-rule="evenodd" d="M172.606 92.5446L149.177 140.582L144.373 138.239L167.802 90.2017L172.606 92.5446Z" fill="url(#paint8_linear_2277_3)"/>
<path d="M168.234 89.3163C169.351 87.0264 172.91 86.322 176.739 87.6332L201.309 96.0489C206.376 97.7845 209.725 102.232 208.247 105.264L206.192 109.476L204.076 113.815L163.126 99.7894L168.234 89.3163Z" fill="url(#paint9_linear_2277_3)"/>
<g filter="url(#filter2_d_2277_3)">
<rect x="65.2112" y="73.2113" width="108.8" height="108.8" rx="16" fill="white"/>
</g>
<path d="M151.468 147.11C151.468 153.014 145.485 157.8 138.106 157.8C130.727 157.8 124.744 153.014 124.744 147.11C124.744 141.207 130.727 136.421 138.106 136.421C145.485 136.421 151.468 141.207 151.468 147.11Z" fill="url(#paint10_linear_2277_3)"/>
<path fill-rule="evenodd" clip-rule="evenodd" d="M148.796 93.6625C150.272 93.6625 151.468 94.8589 151.468 96.3348V147.109C148.534 147.109 146.123 144.731 146.123 141.797V96.3348C146.123 94.8589 147.32 93.6625 148.796 93.6625Z" fill="url(#paint11_linear_2277_3)"/>
<path d="M113.858 153.603C113.858 159.507 107.712 164.292 100.333 164.292C92.9535 164.292 86.9713 159.507 86.9713 153.603C86.9713 147.7 92.9535 142.914 100.333 142.914C107.712 142.914 113.858 147.7 113.858 153.603Z" fill="url(#paint12_linear_2277_3)"/>
<path fill-rule="evenodd" clip-rule="evenodd" d="M113.858 100.158V153.604H108.513V100.158H113.858Z" fill="url(#paint13_linear_2277_3)"/>
<path d="M108.513 99.1726C108.513 96.6249 111.404 94.4314 115.419 93.9318L141.192 90.725C146.507 90.0635 151.467 92.5931 151.467 95.9659V100.653V105.48L108.513 110.825V99.1726Z" fill="url(#paint14_linear_2277_3)"/>
</g>
<defs>
<filter id="filter0_d_2277_3" x="-3.60899" y="45.391" width="154.702" height="154.702" filterUnits="userSpaceOnUse" color-interpolation-filters="sRGB">
<feFlood flood-opacity="0" result="BackgroundImageFix"/>
<feColorMatrix in="SourceAlpha" type="matrix" values="0 0 0 0 0 0 0 0 0 0 0 0 0 0 0 0 0 0 127 0" result="hardAlpha"/>
<feOffset dy="2"/>
<feGaussianBlur stdDeviation="5"/>
<feComposite in2="hardAlpha" operator="out"/>
<feColorMatrix type="matrix" values="0 0 0 0 0 0 0 0 0 0 0 0 0 0 0 0 0 0 0.25 0"/>
<feBlend mode="normal" in2="BackgroundImageFix" result="effect1_dropShadow_2277_3"/>
<feBlend mode="normal" in="SourceGraphic" in2="effect1_dropShadow_2277_3" result="shape"/>
</filter>
<filter id="filter1_d_2277_3" x="88.391" y="44.391" width="154.702" height="154.702" filterUnits="userSpaceOnUse" color-interpolation-filters="sRGB">
<feFlood flood-opacity="0" result="BackgroundImageFix"/>
<feColorMatrix in="SourceAlpha" type="matrix" values="0 0 0 0 0 0 0 0 0 0 0 0 0 0 0 0 0 0 127 0" result="hardAlpha"/>
<feOffset dy="2"/>
<feGaussianBlur stdDeviation="5"/>
<feComposite in2="hardAlpha" operator="out"/>
<feColorMatrix type="matrix" values="0 0 0 0 0 0 0 0 0 0 0 0 0 0 0 0 0 0 0.25 0"/>
<feBlend mode="normal" in2="BackgroundImageFix" result="effect1_dropShadow_2277_3"/>
<feBlend mode="normal" in="SourceGraphic" in2="effect1_dropShadow_2277_3" result="shape"/>
</filter>
<filter id="filter2_d_2277_3" x="55.2112" y="65.2113" width="128.8" height="128.8" filterUnits="userSpaceOnUse" color-interpolation-filters="sRGB">
<feFlood flood-opacity="0" result="BackgroundImageFix"/>
<feColorMatrix in="SourceAlpha" type="matrix" values="0 0 0 0 0 0 0 0 0 0 0 0 0 0 0 0 0 0 127 0" result="hardAlpha"/>
<feOffset dy="2"/>
<feGaussianBlur stdDeviation="5"/>
<feComposite in2="hardAlpha" operator="out"/>
<feColorMatrix type="matrix" values="0 0 0 0 0 0 0 0 0 0 0 0 0 0 0 0 0 0 0.25 0"/>
<feBlend mode="normal" in2="BackgroundImageFix" result="effect1_dropShadow_2277_3"/>
<feBlend mode="normal" in="SourceGraphic" in2="effect1_dropShadow_2277_3" result="shape"/>
</filter>
<linearGradient id="paint0_linear_2277_3" x1="80.919" y1="68.8837" x2="113.206" y2="135.082" gradientUnits="userSpaceOnUse">
<stop offset="0.216346" stop-color="#D9436D"/>
<stop offset="0.519231" stop-color="#B21AA8"/>
<stop offset="0.860577" stop-color="#5158DD"/>
</linearGradient>
<linearGradient id="paint1_linear_2277_3" x1="80.9189" y1="68.8819" x2="113.206" y2="135.08" gradientUnits="userSpaceOnUse">
<stop offset="0.216346" stop-color="#D9436D"/>
<stop offset="0.519231" stop-color="#B21AA8"/>
<stop offset="0.860577" stop-color="#5158DD"/>
</linearGradient>
<linearGradient id="paint2_linear_2277_3" x1="57.2415" y1="87.6554" x2="89.5284" y2="153.853" gradientUnits="userSpaceOnUse">
<stop offset="0.117931" stop-color="#D9436D"/>
<stop offset="0.599567" stop-color="#B21AA8"/>
<stop offset="0.860577" stop-color="#5158DD"/>
</linearGradient>
<linearGradient id="paint3_linear_2277_3" x1="57.2418" y1="87.6567" x2="89.5288" y2="153.855" gradientUnits="userSpaceOnUse">
<stop offset="0.117931" stop-color="#D9436D"/>
<stop offset="0.599567" stop-color="#B21AA8"/>
<stop offset="0.860577" stop-color="#5158DD"/>
</linearGradient>
<linearGradient id="paint4_linear_2277_3" x1="57.2411" y1="87.6553" x2="89.528" y2="153.853" gradientUnits="userSpaceOnUse">
<stop offset="0.117931" stop-color="#D9436D"/>
<stop offset="0.599567" stop-color="#B21AA8"/>
<stop offset="0.860577" stop-color="#5158DD"/>
</linearGradient>
<linearGradient id="paint5_linear_2277_3" x1="211.026" y1="93.4703" x2="178.739" y2="159.668" gradientUnits="userSpaceOnUse">
<stop offset="0.216346" stop-color="#D9436D"/>
<stop offset="0.519231" stop-color="#B21AA8"/>
<stop offset="0.860577" stop-color="#5158DD"/>
</linearGradient>
<linearGradient id="paint6_linear_2277_3" x1="211.027" y1="93.4691" x2="178.74" y2="159.667" gradientUnits="userSpaceOnUse">
<stop offset="0.216346" stop-color="#D9436D"/>
<stop offset="0.519231" stop-color="#B21AA8"/>
<stop offset="0.860577" stop-color="#5158DD"/>
</linearGradient>
<linearGradient id="paint7_linear_2277_3" x1="181.656" y1="86.3692" x2="149.369" y2="152.567" gradientUnits="userSpaceOnUse">
<stop offset="0.117931" stop-color="#D9436D"/>
<stop offset="0.599567" stop-color="#B21AA8"/>
<stop offset="0.860577" stop-color="#5158DD"/>
</linearGradient>
<linearGradient id="paint8_linear_2277_3" x1="181.655" y1="86.3702" x2="149.368" y2="152.568" gradientUnits="userSpaceOnUse">
<stop offset="0.117931" stop-color="#D9436D"/>
<stop offset="0.599567" stop-color="#B21AA8"/>
<stop offset="0.860577" stop-color="#5158DD"/>
</linearGradient>
<linearGradient id="paint9_linear_2277_3" x1="181.656" y1="86.3688" x2="149.369" y2="152.567" gradientUnits="userSpaceOnUse">
<stop offset="0.117931" stop-color="#D9436D"/>
<stop offset="0.599567" stop-color="#B21AA8"/>
<stop offset="0.860577" stop-color="#5158DD"/>
</linearGradient>
<linearGradient id="paint10_linear_2277_3" x1="148.795" y1="84.1476" x2="148.795" y2="157.8" gradientUnits="userSpaceOnUse">
<stop offset="0.216346" stop-color="#D9436D"/>
<stop offset="0.519231" stop-color="#B21AA8"/>
<stop offset="0.860577" stop-color="#5158DD"/>
</linearGradient>
<linearGradient id="paint11_linear_2277_3" x1="148.796" y1="84.1461" x2="148.796" y2="157.798" gradientUnits="userSpaceOnUse">
<stop offset="0.216346" stop-color="#D9436D"/>
<stop offset="0.519231" stop-color="#B21AA8"/>
<stop offset="0.860577" stop-color="#5158DD"/>
</linearGradient>
<linearGradient id="paint12_linear_2277_3" x1="119.285" y1="90.6401" x2="119.285" y2="164.292" gradientUnits="userSpaceOnUse">
<stop offset="0.117931" stop-color="#D9436D"/>
<stop offset="0.599567" stop-color="#B21AA8"/>
<stop offset="0.860577" stop-color="#5158DD"/>
</linearGradient>
<linearGradient id="paint13_linear_2277_3" x1="119.285" y1="90.6414" x2="119.285" y2="164.294" gradientUnits="userSpaceOnUse">
<stop offset="0.117931" stop-color="#D9436D"/>
<stop offset="0.599567" stop-color="#B21AA8"/>
<stop offset="0.860577" stop-color="#5158DD"/>
</linearGradient>
<linearGradient id="paint14_linear_2277_3" x1="119.285" y1="90.6398" x2="119.285" y2="164.292" gradientUnits="userSpaceOnUse">
<stop offset="0.117931" stop-color="#D9436D"/>
<stop offset="0.599567" stop-color="#B21AA8"/>
<stop offset="0.860577" stop-color="#5158DD"/>
</linearGradient>
<clipPath id="clip0_2277_3">
<rect width="240" height="240" fill="white"/>
</clipPath>
</defs>
</svg>
