<svg width="240" height="240" viewBox="0 0 240 240" fill="none" xmlns="http://www.w3.org/2000/svg">
<g filter="url(#filter0_d_2277_3)">
<rect x="28" y="32" width="100" height="100" rx="16" fill="white"/>
<path d="M107.28 99.9217C107.28 105.348 101.781 109.746 94.9986 109.746C88.2161 109.746 82.7177 105.348 82.7177 99.9217C82.7177 94.4959 88.2161 90.0972 94.9986 90.0972C101.781 90.0972 107.28 94.4959 107.28 99.9217Z" fill="url(#paint0_linear_2277_3)"/>
<path fill-rule="evenodd" clip-rule="evenodd" d="M104.824 50.7969C106.181 50.7969 107.28 51.8966 107.28 53.2531V99.9203C104.584 99.9203 102.368 97.7347 102.368 95.0381V53.2531C102.368 51.8966 103.467 50.7969 104.824 50.7969Z" fill="url(#paint1_linear_2277_3)"/>
<path d="M72.7124 105.889C72.7124 111.315 67.0633 115.714 60.2808 115.714C53.4983 115.714 48 111.315 48 105.889C48 100.463 53.4983 96.0643 60.2808 96.0643C67.0633 96.0643 72.7124 100.463 72.7124 105.889Z" fill="url(#paint2_linear_2277_3)"/>
<path fill-rule="evenodd" clip-rule="evenodd" d="M72.7121 56.7668V105.89H67.7998V56.7668H72.7121Z" fill="url(#paint3_linear_2277_3)"/>
<path d="M67.7998 55.8614C67.7998 53.5198 70.4564 51.5037 74.1472 51.0445L97.835 48.0971C102.72 47.4891 107.279 49.8141 107.279 52.914V57.2219V61.6589L67.7998 66.5713V55.8614Z" fill="url(#paint4_linear_2277_3)"/>
</g>
<g filter="url(#filter1_d_2277_3)">
<rect x="68" y="68" width="100" height="100" rx="16" fill="white"/>
<path d="M147.28 135.922C147.28 141.348 141.781 145.746 134.999 145.746C128.216 145.746 122.718 141.348 122.718 135.922C122.718 130.496 128.216 126.097 134.999 126.097C141.781 126.097 147.28 130.496 147.28 135.922Z" fill="url(#paint5_linear_2277_3)"/>
<path fill-rule="evenodd" clip-rule="evenodd" d="M144.824 86.7969C146.181 86.7969 147.28 87.8966 147.28 89.2531V135.92C144.584 135.92 142.368 133.735 142.368 131.038V89.2531C142.368 87.8966 143.467 86.7969 144.824 86.7969Z" fill="url(#paint6_linear_2277_3)"/>
<path d="M112.712 141.889C112.712 147.315 107.063 151.714 100.281 151.714C93.4983 151.714 88 147.315 88 141.889C88 136.463 93.4983 132.064 100.281 132.064C107.063 132.064 112.712 136.463 112.712 141.889Z" fill="url(#paint7_linear_2277_3)"/>
<path fill-rule="evenodd" clip-rule="evenodd" d="M112.712 92.7668V141.89H107.8V92.7668H112.712Z" fill="url(#paint8_linear_2277_3)"/>
<path d="M107.8 91.8614C107.8 89.5198 110.456 87.5037 114.147 87.0445L137.835 84.0971C142.72 83.4891 147.279 85.8141 147.279 88.914V93.2219V97.6589L107.8 102.571V91.8614Z" fill="url(#paint9_linear_2277_3)"/>
</g>
<g filter="url(#filter2_d_2277_3)">
<rect x="113" y="111" width="100" height="100" rx="16" fill="white"/>
<path d="M192.28 178.922C192.28 184.348 186.781 188.746 179.999 188.746C173.216 188.746 167.718 184.348 167.718 178.922C167.718 173.496 173.216 169.097 179.999 169.097C186.781 169.097 192.28 173.496 192.28 178.922Z" fill="url(#paint10_linear_2277_3)"/>
<path fill-rule="evenodd" clip-rule="evenodd" d="M189.824 129.797C191.181 129.797 192.28 130.897 192.28 132.253V178.92C189.584 178.92 187.368 176.735 187.368 174.038V132.253C187.368 130.897 188.467 129.797 189.824 129.797Z" fill="url(#paint11_linear_2277_3)"/>
<path d="M157.712 184.889C157.712 190.315 152.063 194.714 145.281 194.714C138.498 194.714 133 190.315 133 184.889C133 179.463 138.498 175.064 145.281 175.064C152.063 175.064 157.712 179.463 157.712 184.889Z" fill="url(#paint12_linear_2277_3)"/>
<path fill-rule="evenodd" clip-rule="evenodd" d="M157.712 135.767V184.89H152.8V135.767H157.712Z" fill="url(#paint13_linear_2277_3)"/>
<path d="M152.8 134.861C152.8 132.52 155.456 130.504 159.147 130.044L182.835 127.097C187.72 126.489 192.279 128.814 192.279 131.914V136.222V140.659L152.8 145.571V134.861Z" fill="url(#paint14_linear_2277_3)"/>
</g>
<defs>
<filter id="filter0_d_2277_3" x="24" y="32" width="108" height="108" filterUnits="userSpaceOnUse" color-interpolation-filters="sRGB">
<feFlood flood-opacity="0" result="BackgroundImageFix"/>
<feColorMatrix in="SourceAlpha" type="matrix" values="0 0 0 0 0 0 0 0 0 0 0 0 0 0 0 0 0 0 127 0" result="hardAlpha"/>
<feOffset dy="4"/>
<feGaussianBlur stdDeviation="2"/>
<feComposite in2="hardAlpha" operator="out"/>
<feColorMatrix type="matrix" values="0 0 0 0 0 0 0 0 0 0 0 0 0 0 0 0 0 0 0.25 0"/>
<feBlend mode="normal" in2="BackgroundImageFix" result="effect1_dropShadow_2277_3"/>
<feBlend mode="normal" in="SourceGraphic" in2="effect1_dropShadow_2277_3" result="shape"/>
</filter>
<filter id="filter1_d_2277_3" x="64" y="68" width="108" height="108" filterUnits="userSpaceOnUse" color-interpolation-filters="sRGB">
<feFlood flood-opacity="0" result="BackgroundImageFix"/>
<feColorMatrix in="SourceAlpha" type="matrix" values="0 0 0 0 0 0 0 0 0 0 0 0 0 0 0 0 0 0 127 0" result="hardAlpha"/>
<feOffset dy="4"/>
<feGaussianBlur stdDeviation="2"/>
<feComposite in2="hardAlpha" operator="out"/>
<feColorMatrix type="matrix" values="0 0 0 0 0 0 0 0 0 0 0 0 0 0 0 0 0 0 0.25 0"/>
<feBlend mode="normal" in2="BackgroundImageFix" result="effect1_dropShadow_2277_3"/>
<feBlend mode="normal" in="SourceGraphic" in2="effect1_dropShadow_2277_3" result="shape"/>
</filter>
<filter id="filter2_d_2277_3" x="109" y="111" width="108" height="108" filterUnits="userSpaceOnUse" color-interpolation-filters="sRGB">
<feFlood flood-opacity="0" result="BackgroundImageFix"/>
<feColorMatrix in="SourceAlpha" type="matrix" values="0 0 0 0 0 0 0 0 0 0 0 0 0 0 0 0 0 0 127 0" result="hardAlpha"/>
<feOffset dy="4"/>
<feGaussianBlur stdDeviation="2"/>
<feComposite in2="hardAlpha" operator="out"/>
<feColorMatrix type="matrix" values="0 0 0 0 0 0 0 0 0 0 0 0 0 0 0 0 0 0 0.25 0"/>
<feBlend mode="normal" in2="BackgroundImageFix" result="effect1_dropShadow_2277_3"/>
<feBlend mode="normal" in="SourceGraphic" in2="effect1_dropShadow_2277_3" result="shape"/>
</filter>
<linearGradient id="paint0_linear_2277_3" x1="104.823" y1="42.0517" x2="104.823" y2="109.746" gradientUnits="userSpaceOnUse">
<stop offset="0.216346" stop-color="#D9436D"/>
<stop offset="0.519231" stop-color="#B21AA8"/>
<stop offset="0.860577" stop-color="#5158DD"/>
</linearGradient>
<linearGradient id="paint1_linear_2277_3" x1="104.824" y1="42.0503" x2="104.824" y2="109.745" gradientUnits="userSpaceOnUse">
<stop offset="0.216346" stop-color="#D9436D"/>
<stop offset="0.519231" stop-color="#B21AA8"/>
<stop offset="0.860577" stop-color="#5158DD"/>
</linearGradient>
<linearGradient id="paint2_linear_2277_3" x1="77.7" y1="48.019" x2="77.7" y2="115.714" gradientUnits="userSpaceOnUse">
<stop offset="0.117931" stop-color="#D9436D"/>
<stop offset="0.599567" stop-color="#B21AA8"/>
<stop offset="0.860577" stop-color="#5158DD"/>
</linearGradient>
<linearGradient id="paint3_linear_2277_3" x1="77.6998" y1="48.0202" x2="77.6998" y2="115.715" gradientUnits="userSpaceOnUse">
<stop offset="0.117931" stop-color="#D9436D"/>
<stop offset="0.599567" stop-color="#B21AA8"/>
<stop offset="0.860577" stop-color="#5158DD"/>
</linearGradient>
<linearGradient id="paint4_linear_2277_3" x1="77.6998" y1="48.0187" x2="77.6998" y2="115.713" gradientUnits="userSpaceOnUse">
<stop offset="0.117931" stop-color="#D9436D"/>
<stop offset="0.599567" stop-color="#B21AA8"/>
<stop offset="0.860577" stop-color="#5158DD"/>
</linearGradient>
<linearGradient id="paint5_linear_2277_3" x1="144.823" y1="78.0517" x2="144.823" y2="145.746" gradientUnits="userSpaceOnUse">
<stop offset="0.216346" stop-color="#D9436D"/>
<stop offset="0.519231" stop-color="#B21AA8"/>
<stop offset="0.860577" stop-color="#5158DD"/>
</linearGradient>
<linearGradient id="paint6_linear_2277_3" x1="144.824" y1="78.0503" x2="144.824" y2="145.745" gradientUnits="userSpaceOnUse">
<stop offset="0.216346" stop-color="#D9436D"/>
<stop offset="0.519231" stop-color="#B21AA8"/>
<stop offset="0.860577" stop-color="#5158DD"/>
</linearGradient>
<linearGradient id="paint7_linear_2277_3" x1="117.7" y1="84.019" x2="117.7" y2="151.714" gradientUnits="userSpaceOnUse">
<stop offset="0.117931" stop-color="#D9436D"/>
<stop offset="0.599567" stop-color="#B21AA8"/>
<stop offset="0.860577" stop-color="#5158DD"/>
</linearGradient>
<linearGradient id="paint8_linear_2277_3" x1="117.7" y1="84.0202" x2="117.7" y2="151.715" gradientUnits="userSpaceOnUse">
<stop offset="0.117931" stop-color="#D9436D"/>
<stop offset="0.599567" stop-color="#B21AA8"/>
<stop offset="0.860577" stop-color="#5158DD"/>
</linearGradient>
<linearGradient id="paint9_linear_2277_3" x1="117.7" y1="84.0187" x2="117.7" y2="151.713" gradientUnits="userSpaceOnUse">
<stop offset="0.117931" stop-color="#D9436D"/>
<stop offset="0.599567" stop-color="#B21AA8"/>
<stop offset="0.860577" stop-color="#5158DD"/>
</linearGradient>
<linearGradient id="paint10_linear_2277_3" x1="189.823" y1="121.052" x2="189.823" y2="188.746" gradientUnits="userSpaceOnUse">
<stop offset="0.216346" stop-color="#D9436D"/>
<stop offset="0.519231" stop-color="#B21AA8"/>
<stop offset="0.860577" stop-color="#5158DD"/>
</linearGradient>
<linearGradient id="paint11_linear_2277_3" x1="189.824" y1="121.05" x2="189.824" y2="188.745" gradientUnits="userSpaceOnUse">
<stop offset="0.216346" stop-color="#D9436D"/>
<stop offset="0.519231" stop-color="#B21AA8"/>
<stop offset="0.860577" stop-color="#5158DD"/>
</linearGradient>
<linearGradient id="paint12_linear_2277_3" x1="162.7" y1="127.019" x2="162.7" y2="194.714" gradientUnits="userSpaceOnUse">
<stop offset="0.117931" stop-color="#D9436D"/>
<stop offset="0.599567" stop-color="#B21AA8"/>
<stop offset="0.860577" stop-color="#5158DD"/>
</linearGradient>
<linearGradient id="paint13_linear_2277_3" x1="162.7" y1="127.02" x2="162.7" y2="194.715" gradientUnits="userSpaceOnUse">
<stop offset="0.117931" stop-color="#D9436D"/>
<stop offset="0.599567" stop-color="#B21AA8"/>
<stop offset="0.860577" stop-color="#5158DD"/>
</linearGradient>
<linearGradient id="paint14_linear_2277_3" x1="162.7" y1="127.019" x2="162.7" y2="194.713" gradientUnits="userSpaceOnUse">
<stop offset="0.117931" stop-color="#D9436D"/>
<stop offset="0.599567" stop-color="#B21AA8"/>
<stop offset="0.860577" stop-color="#5158DD"/>
</linearGradient>
</defs>
</svg>
